<mxfile host="65bd71144e">
    <diagram id="_hGTIYWdeV8VjQ1R4FSQ" name="Page-1">
        <mxGraphModel dx="2094" dy="1587" grid="1" gridSize="10" guides="1" tooltips="1" connect="1" arrows="1" fold="1" page="0" pageScale="1" pageWidth="1100" pageHeight="850" background="none" math="0" shadow="1">
            <root>
                <mxCell id="0"/>
                <mxCell id="1" parent="0"/>
                <mxCell id="2" value="" style="shape=table;startSize=0;container=1;collapsible=0;childLayout=tableLayout;" parent="1" vertex="1">
                    <mxGeometry x="100" y="-750" width="600" height="60" as="geometry"/>
                </mxCell>
                <mxCell id="3" value="" style="shape=tableRow;horizontal=0;startSize=0;swimlaneHead=0;swimlaneBody=0;top=0;left=0;bottom=0;right=0;collapsible=0;dropTarget=0;fillColor=none;points=[[0,0.5],[1,0.5]];portConstraint=eastwest;" parent="2" vertex="1">
                    <mxGeometry width="600" height="60" as="geometry"/>
                </mxCell>
                <mxCell id="4" value="&lt;span&gt;&lt;u style=&quot;&quot;&gt;&lt;b&gt;&lt;font style=&quot;font-size: 12px;&quot;&gt;Feedback&lt;br&gt;ID (PK)&lt;/font&gt;&lt;/b&gt;&lt;/u&gt;&lt;/span&gt;" style="shape=partialRectangle;html=1;whiteSpace=wrap;connectable=0;overflow=hidden;fillColor=none;top=0;left=0;bottom=0;right=0;pointerEvents=1;" parent="3" vertex="1">
                    <mxGeometry width="75" height="60" as="geometry">
                        <mxRectangle width="75" height="60" as="alternateBounds"/>
                    </mxGeometry>
                </mxCell>
                <mxCell id="5" value="Citizen&lt;br&gt;ID&lt;b&gt; (&lt;/b&gt;FK&lt;b&gt;)&lt;/b&gt;" style="shape=partialRectangle;html=1;whiteSpace=wrap;connectable=0;overflow=hidden;fillColor=none;top=0;left=0;bottom=0;right=0;pointerEvents=1;" parent="3" vertex="1">
                    <mxGeometry x="75" width="50" height="60" as="geometry">
                        <mxRectangle width="50" height="60" as="alternateBounds"/>
                    </mxGeometry>
                </mxCell>
                <mxCell id="6" value="Service&lt;br&gt;ID&lt;b&gt;(&lt;/b&gt;FK&lt;b&gt;)&lt;/b&gt;" style="shape=partialRectangle;html=1;whiteSpace=wrap;connectable=0;overflow=hidden;fillColor=none;top=0;left=0;bottom=0;right=0;pointerEvents=1;" parent="3" vertex="1">
                    <mxGeometry x="125" width="53" height="60" as="geometry">
                        <mxRectangle width="53" height="60" as="alternateBounds"/>
                    </mxGeometry>
                </mxCell>
                <mxCell id="7" value="&lt;div&gt;&lt;/div&gt;Assigned&lt;br&gt;Official ID(FK)" style="shape=partialRectangle;html=1;whiteSpace=wrap;connectable=0;overflow=hidden;fillColor=none;top=0;left=0;bottom=0;right=0;pointerEvents=1;" parent="3" vertex="1">
                    <mxGeometry x="178" width="67" height="60" as="geometry">
                        <mxRectangle width="67" height="60" as="alternateBounds"/>
                    </mxGeometry>
                </mxCell>
                <mxCell id="8" value="Feedback&lt;br&gt;Date" style="shape=partialRectangle;html=1;whiteSpace=wrap;connectable=0;overflow=hidden;fillColor=none;top=0;left=0;bottom=0;right=0;pointerEvents=1;" parent="3" vertex="1">
                    <mxGeometry x="245" width="55" height="60" as="geometry">
                        <mxRectangle width="55" height="60" as="alternateBounds"/>
                    </mxGeometry>
                </mxCell>
                <mxCell id="9" value="Feedback&lt;br&gt;Type" style="shape=partialRectangle;html=1;whiteSpace=wrap;connectable=0;overflow=hidden;fillColor=none;top=0;left=0;bottom=0;right=0;pointerEvents=1;" parent="3" vertex="1">
                    <mxGeometry x="300" width="60" height="60" as="geometry">
                        <mxRectangle width="60" height="60" as="alternateBounds"/>
                    </mxGeometry>
                </mxCell>
                <mxCell id="10" value="Description" style="shape=partialRectangle;html=1;whiteSpace=wrap;connectable=0;overflow=hidden;fillColor=none;top=0;left=0;bottom=0;right=0;pointerEvents=1;" parent="3" vertex="1">
                    <mxGeometry x="360" width="65" height="60" as="geometry">
                        <mxRectangle width="65" height="60" as="alternateBounds"/>
                    </mxGeometry>
                </mxCell>
                <mxCell id="11" value="Rating" style="shape=partialRectangle;html=1;whiteSpace=wrap;connectable=0;overflow=hidden;fillColor=none;top=0;left=0;bottom=0;right=0;pointerEvents=1;" parent="3" vertex="1">
                    <mxGeometry x="425" width="55" height="60" as="geometry">
                        <mxRectangle width="55" height="60" as="alternateBounds"/>
                    </mxGeometry>
                </mxCell>
                <mxCell id="12" value="Resolved&lt;br&gt;Status" style="shape=partialRectangle;html=1;whiteSpace=wrap;connectable=0;overflow=hidden;fillColor=none;top=0;left=0;bottom=0;right=0;pointerEvents=1;" parent="3" vertex="1">
                    <mxGeometry x="480" width="60" height="60" as="geometry">
                        <mxRectangle width="60" height="60" as="alternateBounds"/>
                    </mxGeometry>
                </mxCell>
                <mxCell id="13" value="Resolution&lt;br&gt;Date" style="shape=partialRectangle;html=1;whiteSpace=wrap;connectable=0;overflow=hidden;fillColor=none;top=0;left=0;bottom=0;right=0;pointerEvents=1;" parent="3" vertex="1">
                    <mxGeometry x="540" width="60" height="60" as="geometry">
                        <mxRectangle width="60" height="60" as="alternateBounds"/>
                    </mxGeometry>
                </mxCell>
                <mxCell id="14" value="Feedback" style="text;html=1;align=center;verticalAlign=middle;resizable=0;points=[];autosize=1;strokeColor=none;fillColor=none;" parent="1" vertex="1">
                    <mxGeometry x="100" y="-780" width="80" height="30" as="geometry"/>
                </mxCell>
                <mxCell id="27" value="Service Resquests" style="text;html=1;align=center;verticalAlign=middle;resizable=0;points=[];autosize=1;strokeColor=none;fillColor=none;" parent="1" vertex="1">
                    <mxGeometry x="-160" y="-460" width="120" height="30" as="geometry"/>
                </mxCell>
                <mxCell id="30" value="Citizen Info" style="text;html=1;align=center;verticalAlign=middle;resizable=0;points=[];autosize=1;strokeColor=none;fillColor=none;" parent="1" vertex="1">
                    <mxGeometry x="-200" y="-600" width="80" height="30" as="geometry"/>
                </mxCell>
                <mxCell id="31" value="" style="shape=table;startSize=0;container=1;collapsible=0;childLayout=tableLayout;" parent="1" vertex="1">
                    <mxGeometry x="-200" y="-570" width="690" height="50" as="geometry"/>
                </mxCell>
                <mxCell id="32" value="" style="shape=tableRow;horizontal=0;startSize=0;swimlaneHead=0;swimlaneBody=0;top=0;left=0;bottom=0;right=0;collapsible=0;dropTarget=0;fillColor=none;points=[[0,0.5],[1,0.5]];portConstraint=eastwest;" parent="31" vertex="1">
                    <mxGeometry width="690" height="50" as="geometry"/>
                </mxCell>
                <mxCell id="33" value="&lt;b&gt;&lt;u&gt;Citizen ID&lt;br&gt;(PK)&lt;/u&gt;&lt;/b&gt;" style="shape=partialRectangle;html=1;whiteSpace=wrap;connectable=0;overflow=hidden;fillColor=none;top=0;left=0;bottom=0;right=0;pointerEvents=1;" parent="32" vertex="1">
                    <mxGeometry width="120" height="50" as="geometry">
                        <mxRectangle width="120" height="50" as="alternateBounds"/>
                    </mxGeometry>
                </mxCell>
                <mxCell id="34" value="Full Name" style="shape=partialRectangle;html=1;whiteSpace=wrap;connectable=0;overflow=hidden;fillColor=none;top=0;left=0;bottom=0;right=0;pointerEvents=1;" parent="32" vertex="1">
                    <mxGeometry x="120" width="50" height="50" as="geometry">
                        <mxRectangle width="50" height="50" as="alternateBounds"/>
                    </mxGeometry>
                </mxCell>
                <mxCell id="35" value="Gender" style="shape=partialRectangle;html=1;whiteSpace=wrap;connectable=0;overflow=hidden;fillColor=none;top=0;left=0;bottom=0;right=0;pointerEvents=1;" parent="32" vertex="1">
                    <mxGeometry x="170" width="103" height="50" as="geometry">
                        <mxRectangle width="103" height="50" as="alternateBounds"/>
                    </mxGeometry>
                </mxCell>
                <mxCell id="36" value="Date of Birth" style="shape=partialRectangle;html=1;whiteSpace=wrap;connectable=0;overflow=hidden;fillColor=none;top=0;left=0;bottom=0;right=0;pointerEvents=1;" parent="32" vertex="1">
                    <mxGeometry x="273" width="74" height="50" as="geometry">
                        <mxRectangle width="74" height="50" as="alternateBounds"/>
                    </mxGeometry>
                </mxCell>
                <mxCell id="37" value="Address" style="shape=partialRectangle;html=1;whiteSpace=wrap;connectable=0;overflow=hidden;fillColor=none;top=0;left=0;bottom=0;right=0;pointerEvents=1;" parent="32" vertex="1">
                    <mxGeometry x="347" width="63" height="50" as="geometry">
                        <mxRectangle width="63" height="50" as="alternateBounds"/>
                    </mxGeometry>
                </mxCell>
                <mxCell id="38" value="Contact&amp;nbsp;&lt;br&gt;Number" style="shape=partialRectangle;html=1;whiteSpace=wrap;connectable=0;overflow=hidden;fillColor=none;top=0;left=0;bottom=0;right=0;pointerEvents=1;" parent="32" vertex="1">
                    <mxGeometry x="410" width="74" height="50" as="geometry">
                        <mxRectangle width="74" height="50" as="alternateBounds"/>
                    </mxGeometry>
                </mxCell>
                <mxCell id="39" value="Email" style="shape=partialRectangle;html=1;whiteSpace=wrap;connectable=0;overflow=hidden;fillColor=none;top=0;left=0;bottom=0;right=0;pointerEvents=1;" parent="32" vertex="1">
                    <mxGeometry x="484" width="87" height="50" as="geometry">
                        <mxRectangle width="87" height="50" as="alternateBounds"/>
                    </mxGeometry>
                </mxCell>
                <mxCell id="40" value="National ID" style="shape=partialRectangle;html=1;whiteSpace=wrap;connectable=0;overflow=hidden;fillColor=none;top=0;left=0;bottom=0;right=0;pointerEvents=1;" parent="32" vertex="1">
                    <mxGeometry x="571" width="54" height="50" as="geometry">
                        <mxRectangle width="54" height="50" as="alternateBounds"/>
                    </mxGeometry>
                </mxCell>
                <mxCell id="41" value="City Registaton Date" style="shape=partialRectangle;html=1;whiteSpace=wrap;connectable=0;overflow=hidden;fillColor=none;top=0;left=0;bottom=0;right=0;pointerEvents=1;" parent="32" vertex="1">
                    <mxGeometry x="625" width="65" height="50" as="geometry">
                        <mxRectangle width="65" height="50" as="alternateBounds"/>
                    </mxGeometry>
                </mxCell>
                <mxCell id="64" value="" style="whiteSpace=wrap;html=1;shadow=0;" parent="1" vertex="1">
                    <mxGeometry x="238.75" y="-430" height="60" as="geometry"/>
                </mxCell>
                <mxCell id="68" value="" style="shape=table;startSize=0;container=1;collapsible=0;childLayout=tableLayout;shadow=0;" parent="1" vertex="1">
                    <mxGeometry x="-160" y="-430" width="540" height="40" as="geometry"/>
                </mxCell>
                <mxCell id="69" value="" style="shape=tableRow;horizontal=0;startSize=0;swimlaneHead=0;swimlaneBody=0;top=0;left=0;bottom=0;right=0;collapsible=0;dropTarget=0;fillColor=none;points=[[0,0.5],[1,0.5]];portConstraint=eastwest;shadow=0;" parent="68" vertex="1">
                    <mxGeometry width="540" height="40" as="geometry"/>
                </mxCell>
                <mxCell id="70" value="&lt;u&gt;&lt;b&gt;Request ID (PK)&lt;/b&gt;&lt;/u&gt;" style="shape=partialRectangle;html=1;whiteSpace=wrap;connectable=0;overflow=hidden;fillColor=none;top=0;left=0;bottom=0;right=0;pointerEvents=1;shadow=0;" parent="69" vertex="1">
                    <mxGeometry width="60" height="40" as="geometry">
                        <mxRectangle width="60" height="40" as="alternateBounds"/>
                    </mxGeometry>
                </mxCell>
                <mxCell id="71" value="Citizen_ID" style="shape=partialRectangle;html=1;whiteSpace=wrap;connectable=0;overflow=hidden;fillColor=none;top=0;left=0;bottom=0;right=0;pointerEvents=1;shadow=0;" parent="69" vertex="1">
                    <mxGeometry x="60" width="60" height="40" as="geometry">
                        <mxRectangle width="60" height="40" as="alternateBounds"/>
                    </mxGeometry>
                </mxCell>
                <mxCell id="72" value="Department&lt;br&gt;ID" style="shape=partialRectangle;html=1;whiteSpace=wrap;connectable=0;overflow=hidden;fillColor=none;top=0;left=0;bottom=0;right=0;pointerEvents=1;shadow=0;" parent="69" vertex="1">
                    <mxGeometry x="120" width="70" height="40" as="geometry">
                        <mxRectangle width="70" height="40" as="alternateBounds"/>
                    </mxGeometry>
                </mxCell>
                <mxCell id="73" value="Request Date" style="shape=partialRectangle;html=1;whiteSpace=wrap;connectable=0;overflow=hidden;fillColor=none;top=0;left=0;bottom=0;right=0;pointerEvents=1;shadow=0;" parent="69" vertex="1">
                    <mxGeometry x="190" width="60" height="40" as="geometry">
                        <mxRectangle width="60" height="40" as="alternateBounds"/>
                    </mxGeometry>
                </mxCell>
                <mxCell id="74" value="Priority&lt;br&gt;Level" style="shape=partialRectangle;html=1;whiteSpace=wrap;connectable=0;overflow=hidden;fillColor=none;top=0;left=0;bottom=0;right=0;pointerEvents=1;shadow=0;" parent="69" vertex="1">
                    <mxGeometry x="250" width="50" height="40" as="geometry">
                        <mxRectangle width="50" height="40" as="alternateBounds"/>
                    </mxGeometry>
                </mxCell>
                <mxCell id="75" value="Request&lt;br&gt;Status" style="shape=partialRectangle;html=1;whiteSpace=wrap;connectable=0;overflow=hidden;fillColor=none;top=0;left=0;bottom=0;right=0;pointerEvents=1;shadow=0;" parent="69" vertex="1">
                    <mxGeometry x="300" width="60" height="40" as="geometry">
                        <mxRectangle width="60" height="40" as="alternateBounds"/>
                    </mxGeometry>
                </mxCell>
                <mxCell id="76" value="Resolution&lt;br&gt;Date" style="shape=partialRectangle;html=1;whiteSpace=wrap;connectable=0;overflow=hidden;fillColor=none;top=0;left=0;bottom=0;right=0;pointerEvents=1;shadow=0;" parent="69" vertex="1">
                    <mxGeometry x="360" width="60" height="40" as="geometry">
                        <mxRectangle width="60" height="40" as="alternateBounds"/>
                    </mxGeometry>
                </mxCell>
                <mxCell id="77" value="Assigned Official ID" style="shape=partialRectangle;html=1;whiteSpace=wrap;connectable=0;overflow=hidden;fillColor=none;top=0;left=0;bottom=0;right=0;pointerEvents=1;shadow=0;" parent="69" vertex="1">
                    <mxGeometry x="420" width="60" height="40" as="geometry">
                        <mxRectangle width="60" height="40" as="alternateBounds"/>
                    </mxGeometry>
                </mxCell>
                <mxCell id="78" value="Request Type" style="shape=partialRectangle;html=1;whiteSpace=wrap;connectable=0;overflow=hidden;fillColor=none;top=0;left=0;bottom=0;right=0;pointerEvents=1;shadow=0;" parent="69" vertex="1">
                    <mxGeometry x="480" width="60" height="40" as="geometry">
                        <mxRectangle width="60" height="40" as="alternateBounds"/>
                    </mxGeometry>
                </mxCell>
                <mxCell id="79" value="" style="shape=table;startSize=0;container=1;collapsible=0;childLayout=tableLayout;shadow=0;" parent="1" vertex="1">
                    <mxGeometry x="560" y="-570" width="480" height="40" as="geometry"/>
                </mxCell>
                <mxCell id="80" value="" style="shape=tableRow;horizontal=0;startSize=0;swimlaneHead=0;swimlaneBody=0;top=0;left=0;bottom=0;right=0;collapsible=0;dropTarget=0;fillColor=none;points=[[0,0.5],[1,0.5]];portConstraint=eastwest;shadow=0;" parent="79" vertex="1">
                    <mxGeometry width="480" height="40" as="geometry"/>
                </mxCell>
                <mxCell id="81" value="&lt;b&gt;&lt;u&gt;Official ID&lt;br&gt;(PK)&lt;/u&gt;&lt;/b&gt;" style="shape=partialRectangle;html=1;whiteSpace=wrap;connectable=0;overflow=hidden;fillColor=none;top=0;left=0;bottom=0;right=0;pointerEvents=1;shadow=0;" parent="80" vertex="1">
                    <mxGeometry width="60" height="40" as="geometry">
                        <mxRectangle width="60" height="40" as="alternateBounds"/>
                    </mxGeometry>
                </mxCell>
                <mxCell id="82" value="Full Name" style="shape=partialRectangle;html=1;whiteSpace=wrap;connectable=0;overflow=hidden;fillColor=none;top=0;left=0;bottom=0;right=0;pointerEvents=1;shadow=0;" parent="80" vertex="1">
                    <mxGeometry x="60" width="60" height="40" as="geometry">
                        <mxRectangle width="60" height="40" as="alternateBounds"/>
                    </mxGeometry>
                </mxCell>
                <mxCell id="83" value="Department&amp;nbsp;&lt;br&gt;ID (FK)" style="shape=partialRectangle;html=1;whiteSpace=wrap;connectable=0;overflow=hidden;fillColor=none;top=0;left=0;bottom=0;right=0;pointerEvents=1;shadow=0;" parent="80" vertex="1">
                    <mxGeometry x="120" width="70" height="40" as="geometry">
                        <mxRectangle width="70" height="40" as="alternateBounds"/>
                    </mxGeometry>
                </mxCell>
                <mxCell id="84" value="Position" style="shape=partialRectangle;html=1;whiteSpace=wrap;connectable=0;overflow=hidden;fillColor=none;top=0;left=0;bottom=0;right=0;pointerEvents=1;shadow=0;" parent="80" vertex="1">
                    <mxGeometry x="190" width="50" height="40" as="geometry">
                        <mxRectangle width="50" height="40" as="alternateBounds"/>
                    </mxGeometry>
                </mxCell>
                <mxCell id="85" value="Contact&amp;nbsp;&lt;br&gt;Number" style="shape=partialRectangle;html=1;whiteSpace=wrap;connectable=0;overflow=hidden;fillColor=none;top=0;left=0;bottom=0;right=0;pointerEvents=1;shadow=0;" parent="80" vertex="1">
                    <mxGeometry x="240" width="60" height="40" as="geometry">
                        <mxRectangle width="60" height="40" as="alternateBounds"/>
                    </mxGeometry>
                </mxCell>
                <mxCell id="86" value="Email" style="shape=partialRectangle;html=1;whiteSpace=wrap;connectable=0;overflow=hidden;fillColor=none;top=0;left=0;bottom=0;right=0;pointerEvents=1;shadow=0;" parent="80" vertex="1">
                    <mxGeometry x="300" width="60" height="40" as="geometry">
                        <mxRectangle width="60" height="40" as="alternateBounds"/>
                    </mxGeometry>
                </mxCell>
                <mxCell id="87" value="Years of Service" style="shape=partialRectangle;html=1;whiteSpace=wrap;connectable=0;overflow=hidden;fillColor=none;top=0;left=0;bottom=0;right=0;pointerEvents=1;shadow=0;" parent="80" vertex="1">
                    <mxGeometry x="360" width="60" height="40" as="geometry">
                        <mxRectangle width="60" height="40" as="alternateBounds"/>
                    </mxGeometry>
                </mxCell>
                <mxCell id="88" value="Role" style="shape=partialRectangle;html=1;whiteSpace=wrap;connectable=0;overflow=hidden;fillColor=none;top=0;left=0;bottom=0;right=0;pointerEvents=1;shadow=0;" parent="80" vertex="1">
                    <mxGeometry x="420" width="60" height="40" as="geometry">
                        <mxRectangle width="60" height="40" as="alternateBounds"/>
                    </mxGeometry>
                </mxCell>
                <mxCell id="89" value="City Official" style="text;html=1;align=center;verticalAlign=middle;resizable=0;points=[];autosize=1;strokeColor=none;fillColor=none;shadow=0;" parent="1" vertex="1">
                    <mxGeometry x="560" y="-600" width="80" height="30" as="geometry"/>
                </mxCell>
                <mxCell id="90" value="" style="shape=table;startSize=0;container=1;collapsible=0;childLayout=tableLayout;shadow=0;" parent="1" vertex="1">
                    <mxGeometry x="540" y="-310" width="490" height="50" as="geometry"/>
                </mxCell>
                <mxCell id="91" value="" style="shape=tableRow;horizontal=0;startSize=0;swimlaneHead=0;swimlaneBody=0;top=0;left=0;bottom=0;right=0;collapsible=0;dropTarget=0;fillColor=none;points=[[0,0.5],[1,0.5]];portConstraint=eastwest;shadow=0;" parent="90" vertex="1">
                    <mxGeometry width="490" height="50" as="geometry"/>
                </mxCell>
                <mxCell id="92" value="Department ID (PK)" style="shape=partialRectangle;html=1;whiteSpace=wrap;connectable=0;overflow=hidden;fillColor=none;top=0;left=0;bottom=0;right=0;pointerEvents=1;shadow=0;" parent="91" vertex="1">
                    <mxGeometry width="70" height="50" as="geometry">
                        <mxRectangle width="70" height="50" as="alternateBounds"/>
                    </mxGeometry>
                </mxCell>
                <mxCell id="93" value="Department&lt;br&gt;Name" style="shape=partialRectangle;html=1;whiteSpace=wrap;connectable=0;overflow=hidden;fillColor=none;top=0;left=0;bottom=0;right=0;pointerEvents=1;shadow=0;" parent="91" vertex="1">
                    <mxGeometry x="70" width="70" height="50" as="geometry">
                        <mxRectangle width="70" height="50" as="alternateBounds"/>
                    </mxGeometry>
                </mxCell>
                <mxCell id="94" value="Head Official ID" style="shape=partialRectangle;html=1;whiteSpace=wrap;connectable=0;overflow=hidden;fillColor=none;top=0;left=0;bottom=0;right=0;pointerEvents=1;shadow=0;" parent="91" vertex="1">
                    <mxGeometry x="140" width="60" height="50" as="geometry">
                        <mxRectangle width="60" height="50" as="alternateBounds"/>
                    </mxGeometry>
                </mxCell>
                <mxCell id="95" value="Number of Employess" style="shape=partialRectangle;html=1;whiteSpace=wrap;connectable=0;overflow=hidden;fillColor=none;top=0;left=0;bottom=0;right=0;pointerEvents=1;shadow=0;" parent="91" vertex="1">
                    <mxGeometry x="200" width="70" height="50" as="geometry">
                        <mxRectangle width="70" height="50" as="alternateBounds"/>
                    </mxGeometry>
                </mxCell>
                <mxCell id="96" value="Department Budget" style="shape=partialRectangle;html=1;whiteSpace=wrap;connectable=0;overflow=hidden;fillColor=none;top=0;left=0;bottom=0;right=0;pointerEvents=1;shadow=0;" parent="91" vertex="1">
                    <mxGeometry x="270" width="70" height="50" as="geometry">
                        <mxRectangle width="70" height="50" as="alternateBounds"/>
                    </mxGeometry>
                </mxCell>
                <mxCell id="97" value="Office Location" style="shape=partialRectangle;html=1;whiteSpace=wrap;connectable=0;overflow=hidden;fillColor=none;top=0;left=0;bottom=0;right=0;pointerEvents=1;shadow=0;" parent="91" vertex="1">
                    <mxGeometry x="340" width="60" height="50" as="geometry">
                        <mxRectangle width="60" height="50" as="alternateBounds"/>
                    </mxGeometry>
                </mxCell>
                <mxCell id="98" value="Main responsibilites" style="shape=partialRectangle;html=1;whiteSpace=wrap;connectable=0;overflow=hidden;fillColor=none;top=0;left=0;bottom=0;right=0;pointerEvents=1;shadow=0;" parent="91" vertex="1">
                    <mxGeometry x="400" width="90" height="50" as="geometry">
                        <mxRectangle width="90" height="50" as="alternateBounds"/>
                    </mxGeometry>
                </mxCell>
                <mxCell id="100" value="Department" style="text;html=1;align=center;verticalAlign=middle;resizable=0;points=[];autosize=1;strokeColor=none;fillColor=none;labelBackgroundColor=#171717;fontColor=#FFFFFF;labelBorderColor=none;" parent="1" vertex="1">
                    <mxGeometry x="540" y="-340" width="90" height="30" as="geometry"/>
                </mxCell>
                <mxCell id="101" value="" style="shape=table;startSize=0;container=1;collapsible=0;childLayout=tableLayout;shadow=0;" parent="1" vertex="1">
                    <mxGeometry x="-240" y="-300" width="500" height="50" as="geometry"/>
                </mxCell>
                <mxCell id="102" value="" style="shape=tableRow;horizontal=0;startSize=0;swimlaneHead=0;swimlaneBody=0;top=0;left=0;bottom=0;right=0;collapsible=0;dropTarget=0;fillColor=none;points=[[0,0.5],[1,0.5]];portConstraint=eastwest;shadow=0;" parent="101" vertex="1">
                    <mxGeometry width="500" height="50" as="geometry"/>
                </mxCell>
                <mxCell id="103" value="&lt;b&gt;&lt;u&gt;Weather Data ID (PK)&lt;/u&gt;&lt;/b&gt;&lt;table&gt;&lt;tbody&gt;&lt;tr&gt;&lt;td&gt;&lt;br&gt;&lt;/td&gt;&lt;td&gt;&lt;br&gt;&lt;/td&gt;&lt;td&gt;&lt;br&gt;&lt;/td&gt;&lt;td&gt;&lt;br&gt;&lt;/td&gt;&lt;td&gt;&lt;br&gt;&lt;/td&gt;&lt;td&gt;&lt;br&gt;&lt;/td&gt;&lt;td&gt;&lt;br&gt;&lt;/td&gt;&lt;td&gt;&lt;br&gt;&lt;/td&gt;&lt;/tr&gt;&lt;/tbody&gt;&lt;/table&gt;" style="shape=partialRectangle;html=1;whiteSpace=wrap;connectable=0;overflow=hidden;fillColor=none;top=0;left=0;bottom=0;right=0;pointerEvents=1;shadow=0;" parent="102" vertex="1">
                    <mxGeometry width="67" height="50" as="geometry">
                        <mxRectangle width="67" height="50" as="alternateBounds"/>
                    </mxGeometry>
                </mxCell>
                <mxCell id="104" value="Location ID(FK)" style="shape=partialRectangle;html=1;whiteSpace=wrap;connectable=0;overflow=hidden;fillColor=none;top=0;left=0;bottom=0;right=0;pointerEvents=1;shadow=0;" parent="102" vertex="1">
                    <mxGeometry x="67" width="66" height="50" as="geometry">
                        <mxRectangle width="66" height="50" as="alternateBounds"/>
                    </mxGeometry>
                </mxCell>
                <mxCell id="105" value="Timestamp" style="shape=partialRectangle;html=1;whiteSpace=wrap;connectable=0;overflow=hidden;fillColor=none;top=0;left=0;bottom=0;right=0;pointerEvents=1;shadow=0;" parent="102" vertex="1">
                    <mxGeometry x="133" width="78" height="50" as="geometry">
                        <mxRectangle width="78" height="50" as="alternateBounds"/>
                    </mxGeometry>
                </mxCell>
                <mxCell id="106" value="Temperature" style="shape=partialRectangle;html=1;whiteSpace=wrap;connectable=0;overflow=hidden;fillColor=none;top=0;left=0;bottom=0;right=0;pointerEvents=1;shadow=0;" parent="102" vertex="1">
                    <mxGeometry x="211" width="89" height="50" as="geometry">
                        <mxRectangle width="89" height="50" as="alternateBounds"/>
                    </mxGeometry>
                </mxCell>
                <mxCell id="107" value="Humidity" style="shape=partialRectangle;html=1;whiteSpace=wrap;connectable=0;overflow=hidden;fillColor=none;top=0;left=0;bottom=0;right=0;pointerEvents=1;shadow=0;" parent="102" vertex="1">
                    <mxGeometry x="300" width="67" height="50" as="geometry">
                        <mxRectangle width="67" height="50" as="alternateBounds"/>
                    </mxGeometry>
                </mxCell>
                <mxCell id="108" value="Wind Speed" style="shape=partialRectangle;html=1;whiteSpace=wrap;connectable=0;overflow=hidden;fillColor=none;top=0;left=0;bottom=0;right=0;pointerEvents=1;shadow=0;" parent="102" vertex="1">
                    <mxGeometry x="367" width="66" height="50" as="geometry">
                        <mxRectangle width="66" height="50" as="alternateBounds"/>
                    </mxGeometry>
                </mxCell>
                <mxCell id="109" value="Air Condition Index" style="shape=partialRectangle;html=1;whiteSpace=wrap;connectable=0;overflow=hidden;fillColor=none;top=0;left=0;bottom=0;right=0;pointerEvents=1;shadow=0;" parent="102" vertex="1">
                    <mxGeometry x="433" width="67" height="50" as="geometry">
                        <mxRectangle width="67" height="50" as="alternateBounds"/>
                    </mxGeometry>
                </mxCell>
                <mxCell id="110" value="Weather Condition Data" style="text;html=1;align=center;verticalAlign=middle;resizable=0;points=[];autosize=1;strokeColor=none;fillColor=none;" parent="1" vertex="1">
                    <mxGeometry x="-240" y="-330" width="150" height="30" as="geometry"/>
                </mxCell>
                <mxCell id="111" value="" style="shape=table;startSize=0;container=1;collapsible=0;childLayout=tableLayout;shadow=0;" parent="1" vertex="1">
                    <mxGeometry y="-150" width="590" height="40" as="geometry"/>
                </mxCell>
                <mxCell id="112" value="" style="shape=tableRow;horizontal=0;startSize=0;swimlaneHead=0;swimlaneBody=0;top=0;left=0;bottom=0;right=0;collapsible=0;dropTarget=0;fillColor=none;points=[[0,0.5],[1,0.5]];portConstraint=eastwest;shadow=0;" parent="111" vertex="1">
                    <mxGeometry width="590" height="40" as="geometry"/>
                </mxCell>
                <mxCell id="113" value="&lt;b&gt;&lt;u&gt;Maintenance ID(PK)&lt;/u&gt;&lt;/b&gt;" style="shape=partialRectangle;html=1;whiteSpace=wrap;connectable=0;overflow=hidden;fillColor=none;top=0;left=0;bottom=0;right=0;pointerEvents=1;shadow=0;" parent="112" vertex="1">
                    <mxGeometry width="80" height="40" as="geometry">
                        <mxRectangle width="80" height="40" as="alternateBounds"/>
                    </mxGeometry>
                </mxCell>
                <mxCell id="114" value="Infrastructure&lt;br&gt;Type" style="shape=partialRectangle;html=1;whiteSpace=wrap;connectable=0;overflow=hidden;fillColor=none;top=0;left=0;bottom=0;right=0;pointerEvents=1;shadow=0;" parent="112" vertex="1">
                    <mxGeometry x="80" width="80" height="40" as="geometry">
                        <mxRectangle width="80" height="40" as="alternateBounds"/>
                    </mxGeometry>
                </mxCell>
                <mxCell id="115" value="Location ID&lt;br&gt;(FK)" style="shape=partialRectangle;html=1;whiteSpace=wrap;connectable=0;overflow=hidden;fillColor=none;top=0;left=0;bottom=0;right=0;pointerEvents=1;shadow=0;" parent="112" vertex="1">
                    <mxGeometry x="160" width="70" height="40" as="geometry">
                        <mxRectangle width="70" height="40" as="alternateBounds"/>
                    </mxGeometry>
                </mxCell>
                <mxCell id="116" value="Department&lt;br&gt;(FK)" style="shape=partialRectangle;html=1;whiteSpace=wrap;connectable=0;overflow=hidden;fillColor=none;top=0;left=0;bottom=0;right=0;pointerEvents=1;shadow=0;" parent="112" vertex="1">
                    <mxGeometry x="230" width="80" height="40" as="geometry">
                        <mxRectangle width="80" height="40" as="alternateBounds"/>
                    </mxGeometry>
                </mxCell>
                <mxCell id="117" value="Scheduled Data" style="shape=partialRectangle;html=1;whiteSpace=wrap;connectable=0;overflow=hidden;fillColor=none;top=0;left=0;bottom=0;right=0;pointerEvents=1;shadow=0;" parent="112" vertex="1">
                    <mxGeometry x="310" width="70" height="40" as="geometry">
                        <mxRectangle width="70" height="40" as="alternateBounds"/>
                    </mxGeometry>
                </mxCell>
                <mxCell id="118" value="Status" style="shape=partialRectangle;html=1;whiteSpace=wrap;connectable=0;overflow=hidden;fillColor=none;top=0;left=0;bottom=0;right=0;pointerEvents=1;shadow=0;" parent="112" vertex="1">
                    <mxGeometry x="380" width="60" height="40" as="geometry">
                        <mxRectangle width="60" height="40" as="alternateBounds"/>
                    </mxGeometry>
                </mxCell>
                <mxCell id="119" value="Cost" style="shape=partialRectangle;html=1;whiteSpace=wrap;connectable=0;overflow=hidden;fillColor=none;top=0;left=0;bottom=0;right=0;pointerEvents=1;shadow=0;" parent="112" vertex="1">
                    <mxGeometry x="440" width="70" height="40" as="geometry">
                        <mxRectangle width="70" height="40" as="alternateBounds"/>
                    </mxGeometry>
                </mxCell>
                <mxCell id="120" value="Comments" style="shape=partialRectangle;html=1;whiteSpace=wrap;connectable=0;overflow=hidden;fillColor=none;top=0;left=0;bottom=0;right=0;pointerEvents=1;shadow=0;" parent="112" vertex="1">
                    <mxGeometry x="510" width="80" height="40" as="geometry">
                        <mxRectangle width="80" height="40" as="alternateBounds"/>
                    </mxGeometry>
                </mxCell>
                <mxCell id="121" value="Infrastructure Maintenance" style="text;html=1;align=center;verticalAlign=middle;resizable=0;points=[];autosize=1;strokeColor=none;fillColor=none;" parent="1" vertex="1">
                    <mxGeometry y="-180" width="170" height="30" as="geometry"/>
                </mxCell>
                <mxCell id="123" value="" style="shape=table;startSize=0;container=1;collapsible=0;childLayout=tableLayout;shadow=0;" parent="1" vertex="1">
                    <mxGeometry x="-200" y="130" width="445" height="50" as="geometry"/>
                </mxCell>
                <mxCell id="124" value="" style="shape=tableRow;horizontal=0;startSize=0;swimlaneHead=0;swimlaneBody=0;top=0;left=0;bottom=0;right=0;collapsible=0;dropTarget=0;fillColor=none;points=[[0,0.5],[1,0.5]];portConstraint=eastwest;shadow=0;" parent="123" vertex="1">
                    <mxGeometry width="445" height="50" as="geometry"/>
                </mxCell>
                <mxCell id="125" value="&lt;b&gt;&lt;u&gt;Metro ID&lt;br&gt;(PK)&lt;/u&gt;&lt;/b&gt;" style="shape=partialRectangle;html=1;whiteSpace=wrap;connectable=0;overflow=hidden;fillColor=none;top=0;left=0;bottom=0;right=0;pointerEvents=1;shadow=0;" parent="124" vertex="1">
                    <mxGeometry width="60" height="50" as="geometry">
                        <mxRectangle width="60" height="50" as="alternateBounds"/>
                    </mxGeometry>
                </mxCell>
                <mxCell id="126" value="Route Name" style="shape=partialRectangle;html=1;whiteSpace=wrap;connectable=0;overflow=hidden;fillColor=none;top=0;left=0;bottom=0;right=0;pointerEvents=1;shadow=0;" parent="124" vertex="1">
                    <mxGeometry x="60" width="60" height="50" as="geometry">
                        <mxRectangle width="60" height="50" as="alternateBounds"/>
                    </mxGeometry>
                </mxCell>
                <mxCell id="127" value="Start Location ID (FK)" style="shape=partialRectangle;html=1;whiteSpace=wrap;connectable=0;overflow=hidden;fillColor=none;top=0;left=0;bottom=0;right=0;pointerEvents=1;shadow=0;" parent="124" vertex="1">
                    <mxGeometry x="120" width="60" height="50" as="geometry">
                        <mxRectangle width="60" height="50" as="alternateBounds"/>
                    </mxGeometry>
                </mxCell>
                <mxCell id="128" value="End Location&lt;br&gt;(FK)" style="shape=partialRectangle;html=1;whiteSpace=wrap;connectable=0;overflow=hidden;fillColor=none;top=0;left=0;bottom=0;right=0;pointerEvents=1;shadow=0;" parent="124" vertex="1">
                    <mxGeometry x="180" width="60" height="50" as="geometry">
                        <mxRectangle width="60" height="50" as="alternateBounds"/>
                    </mxGeometry>
                </mxCell>
                <mxCell id="129" value="Number of&lt;br&gt;Stations" style="shape=partialRectangle;html=1;whiteSpace=wrap;connectable=0;overflow=hidden;fillColor=none;top=0;left=0;bottom=0;right=0;pointerEvents=1;shadow=0;" parent="124" vertex="1">
                    <mxGeometry x="240" width="65" height="50" as="geometry">
                        <mxRectangle width="65" height="50" as="alternateBounds"/>
                    </mxGeometry>
                </mxCell>
                <mxCell id="130" value="Frequency&lt;br&gt;per Hour" style="shape=partialRectangle;html=1;whiteSpace=wrap;connectable=0;overflow=hidden;fillColor=none;top=0;left=0;bottom=0;right=0;pointerEvents=1;shadow=0;" parent="124" vertex="1">
                    <mxGeometry x="305" width="70" height="50" as="geometry">
                        <mxRectangle width="70" height="50" as="alternateBounds"/>
                    </mxGeometry>
                </mxCell>
                <mxCell id="131" value="Operational Status" style="shape=partialRectangle;html=1;whiteSpace=wrap;connectable=0;overflow=hidden;fillColor=none;top=0;left=0;bottom=0;right=0;pointerEvents=1;shadow=0;" parent="124" vertex="1">
                    <mxGeometry x="375" width="70" height="50" as="geometry">
                        <mxRectangle width="70" height="50" as="alternateBounds"/>
                    </mxGeometry>
                </mxCell>
                <mxCell id="132" value="Metro Transportation" style="text;html=1;align=center;verticalAlign=middle;resizable=0;points=[];autosize=1;strokeColor=none;fillColor=none;" parent="1" vertex="1">
                    <mxGeometry x="-200" y="100" width="130" height="30" as="geometry"/>
                </mxCell>
                <mxCell id="133" value="" style="shape=table;startSize=0;container=1;collapsible=0;childLayout=tableLayout;shadow=0;" parent="1" vertex="1">
                    <mxGeometry x="12.5" y="-30" width="452.5" height="40" as="geometry"/>
                </mxCell>
                <mxCell id="134" value="" style="shape=tableRow;horizontal=0;startSize=0;swimlaneHead=0;swimlaneBody=0;top=0;left=0;bottom=0;right=0;collapsible=0;dropTarget=0;fillColor=none;points=[[0,0.5],[1,0.5]];portConstraint=eastwest;shadow=0;" parent="133" vertex="1">
                    <mxGeometry width="452.5" height="40" as="geometry"/>
                </mxCell>
                <mxCell id="135" value="&lt;b&gt;&lt;u&gt;Location ID(PK)&lt;/u&gt;&lt;/b&gt;" style="shape=partialRectangle;html=1;whiteSpace=wrap;connectable=0;overflow=hidden;fillColor=none;top=0;left=0;bottom=0;right=0;pointerEvents=1;shadow=0;" parent="134" vertex="1">
                    <mxGeometry width="104" height="40" as="geometry">
                        <mxRectangle width="104" height="40" as="alternateBounds"/>
                    </mxGeometry>
                </mxCell>
                <mxCell id="136" value="Location Name" style="shape=partialRectangle;html=1;whiteSpace=wrap;connectable=0;overflow=hidden;fillColor=none;top=0;left=0;bottom=0;right=0;pointerEvents=1;shadow=0;" parent="134" vertex="1">
                    <mxGeometry x="104" width="58" height="40" as="geometry">
                        <mxRectangle width="58" height="40" as="alternateBounds"/>
                    </mxGeometry>
                </mxCell>
                <mxCell id="137" value="Zone &lt;br&gt;Type" style="shape=partialRectangle;html=1;whiteSpace=wrap;connectable=0;overflow=hidden;fillColor=none;top=0;left=0;bottom=0;right=0;pointerEvents=1;shadow=0;" parent="134" vertex="1">
                    <mxGeometry x="162" width="64" height="40" as="geometry">
                        <mxRectangle width="64" height="40" as="alternateBounds"/>
                    </mxGeometry>
                </mxCell>
                <mxCell id="138" value="District" style="shape=partialRectangle;html=1;whiteSpace=wrap;connectable=0;overflow=hidden;fillColor=none;top=0;left=0;bottom=0;right=0;pointerEvents=1;shadow=0;" parent="134" vertex="1">
                    <mxGeometry x="226" width="76" height="40" as="geometry">
                        <mxRectangle width="76" height="40" as="alternateBounds"/>
                    </mxGeometry>
                </mxCell>
                <mxCell id="139" value="Latitude" style="shape=partialRectangle;html=1;whiteSpace=wrap;connectable=0;overflow=hidden;fillColor=none;top=0;left=0;bottom=0;right=0;pointerEvents=1;shadow=0;" parent="134" vertex="1">
                    <mxGeometry x="302" width="75" height="40" as="geometry">
                        <mxRectangle width="75" height="40" as="alternateBounds"/>
                    </mxGeometry>
                </mxCell>
                <mxCell id="140" value="Longitude" style="shape=partialRectangle;html=1;whiteSpace=wrap;connectable=0;overflow=hidden;fillColor=none;top=0;left=0;bottom=0;right=0;pointerEvents=1;shadow=0;" parent="134" vertex="1">
                    <mxGeometry x="377" width="76" height="40" as="geometry">
                        <mxRectangle width="76" height="40" as="alternateBounds"/>
                    </mxGeometry>
                </mxCell>
                <mxCell id="141" value="Location" style="text;html=1;align=center;verticalAlign=middle;resizable=0;points=[];autosize=1;strokeColor=none;fillColor=none;" parent="1" vertex="1">
                    <mxGeometry x="12.5" y="-60" width="70" height="30" as="geometry"/>
                </mxCell>
                <mxCell id="142" value="" style="shape=table;startSize=0;container=1;collapsible=0;childLayout=tableLayout;shadow=0;" parent="1" vertex="1">
                    <mxGeometry x="280" y="130" width="522.5" height="50" as="geometry"/>
                </mxCell>
                <mxCell id="143" value="" style="shape=tableRow;horizontal=0;startSize=0;swimlaneHead=0;swimlaneBody=0;top=0;left=0;bottom=0;right=0;collapsible=0;dropTarget=0;fillColor=none;points=[[0,0.5],[1,0.5]];portConstraint=eastwest;shadow=0;" parent="142" vertex="1">
                    <mxGeometry width="522.5" height="50" as="geometry"/>
                </mxCell>
                <mxCell id="144" value="&lt;b&gt;&lt;u&gt;Traffic ID&lt;br&gt;(PK)&lt;/u&gt;&lt;/b&gt;" style="shape=partialRectangle;html=1;whiteSpace=wrap;connectable=0;overflow=hidden;fillColor=none;top=0;left=0;bottom=0;right=0;pointerEvents=1;shadow=0;" parent="143" vertex="1">
                    <mxGeometry width="60" height="50" as="geometry">
                        <mxRectangle width="60" height="50" as="alternateBounds"/>
                    </mxGeometry>
                </mxCell>
                <mxCell id="145" value="Location ID(FK)" style="shape=partialRectangle;html=1;whiteSpace=wrap;connectable=0;overflow=hidden;fillColor=none;top=0;left=0;bottom=0;right=0;pointerEvents=1;shadow=0;" parent="143" vertex="1">
                    <mxGeometry x="60" width="60" height="50" as="geometry">
                        <mxRectangle width="60" height="50" as="alternateBounds"/>
                    </mxGeometry>
                </mxCell>
                <mxCell id="146" value="Device ID&lt;br&gt;(FK)" style="shape=partialRectangle;html=1;whiteSpace=wrap;connectable=0;overflow=hidden;fillColor=none;top=0;left=0;bottom=0;right=0;pointerEvents=1;shadow=0;" parent="143" vertex="1">
                    <mxGeometry x="120" width="60" height="50" as="geometry">
                        <mxRectangle width="60" height="50" as="alternateBounds"/>
                    </mxGeometry>
                </mxCell>
                <mxCell id="147" value="Vehicle&lt;br&gt;count" style="shape=partialRectangle;html=1;whiteSpace=wrap;connectable=0;overflow=hidden;fillColor=none;top=0;left=0;bottom=0;right=0;pointerEvents=1;shadow=0;" parent="143" vertex="1">
                    <mxGeometry x="180" width="60" height="50" as="geometry">
                        <mxRectangle width="60" height="50" as="alternateBounds"/>
                    </mxGeometry>
                </mxCell>
                <mxCell id="148" value="Average&lt;br&gt;Speed" style="shape=partialRectangle;html=1;whiteSpace=wrap;connectable=0;overflow=hidden;fillColor=none;top=0;left=0;bottom=0;right=0;pointerEvents=1;shadow=0;" parent="143" vertex="1">
                    <mxGeometry x="240" width="60" height="50" as="geometry">
                        <mxRectangle width="60" height="50" as="alternateBounds"/>
                    </mxGeometry>
                </mxCell>
                <mxCell id="149" value="Accident Spedd" style="shape=partialRectangle;html=1;whiteSpace=wrap;connectable=0;overflow=hidden;fillColor=none;top=0;left=0;bottom=0;right=0;pointerEvents=1;shadow=0;" parent="143" vertex="1">
                    <mxGeometry x="300" width="60" height="50" as="geometry">
                        <mxRectangle width="60" height="50" as="alternateBounds"/>
                    </mxGeometry>
                </mxCell>
                <mxCell id="150" value="Congestion&lt;br&gt;Level" style="shape=partialRectangle;html=1;whiteSpace=wrap;connectable=0;overflow=hidden;fillColor=none;top=0;left=0;bottom=0;right=0;pointerEvents=1;shadow=0;" parent="143" vertex="1">
                    <mxGeometry x="360" width="73" height="50" as="geometry">
                        <mxRectangle width="73" height="50" as="alternateBounds"/>
                    </mxGeometry>
                </mxCell>
                <mxCell id="151" value="Timestamp" style="shape=partialRectangle;html=1;whiteSpace=wrap;connectable=0;overflow=hidden;fillColor=none;top=0;left=0;bottom=0;right=0;pointerEvents=1;shadow=0;" parent="143" vertex="1">
                    <mxGeometry x="433" width="90" height="50" as="geometry">
                        <mxRectangle width="90" height="50" as="alternateBounds"/>
                    </mxGeometry>
                </mxCell>
                <mxCell id="165" value="Utility Monitoring" style="text;html=1;align=center;verticalAlign=middle;resizable=0;points=[];autosize=1;strokeColor=none;fillColor=none;" parent="1" vertex="1">
                    <mxGeometry x="-610" y="230" width="110" height="30" as="geometry"/>
                </mxCell>
                <mxCell id="166" value="" style="shape=table;startSize=0;container=1;collapsible=0;childLayout=tableLayout;shadow=0;fontColor=#000000;" parent="1" vertex="1">
                    <mxGeometry x="-610" y="260" width="600" height="50" as="geometry"/>
                </mxCell>
                <mxCell id="167" value="" style="shape=tableRow;horizontal=0;startSize=0;swimlaneHead=0;swimlaneBody=0;top=0;left=0;bottom=0;right=0;collapsible=0;dropTarget=0;fillColor=none;points=[[0,0.5],[1,0.5]];portConstraint=eastwest;shadow=0;" parent="166" vertex="1">
                    <mxGeometry width="600" height="50" as="geometry"/>
                </mxCell>
                <mxCell id="168" value="&lt;b&gt;&lt;u&gt;Utility ID&lt;br&gt;(PK)&lt;/u&gt;&lt;/b&gt;" style="shape=partialRectangle;html=1;whiteSpace=wrap;connectable=0;overflow=hidden;fillColor=none;top=0;left=0;bottom=0;right=0;pointerEvents=1;shadow=0;" parent="167" vertex="1">
                    <mxGeometry width="60" height="50" as="geometry">
                        <mxRectangle width="60" height="50" as="alternateBounds"/>
                    </mxGeometry>
                </mxCell>
                <mxCell id="169" value="Location ID(FK)" style="shape=partialRectangle;html=1;whiteSpace=wrap;connectable=0;overflow=hidden;fillColor=none;top=0;left=0;bottom=0;right=0;pointerEvents=1;shadow=0;" parent="167" vertex="1">
                    <mxGeometry x="60" width="60" height="50" as="geometry">
                        <mxRectangle width="60" height="50" as="alternateBounds"/>
                    </mxGeometry>
                </mxCell>
                <mxCell id="170" value="Utility Type" style="shape=partialRectangle;html=1;whiteSpace=wrap;connectable=0;overflow=hidden;fillColor=none;top=0;left=0;bottom=0;right=0;pointerEvents=1;shadow=0;" parent="167" vertex="1">
                    <mxGeometry x="120" width="60" height="50" as="geometry">
                        <mxRectangle width="60" height="50" as="alternateBounds"/>
                    </mxGeometry>
                </mxCell>
                <mxCell id="171" value="consumption" style="shape=partialRectangle;html=1;whiteSpace=wrap;connectable=0;overflow=hidden;fillColor=none;top=0;left=0;bottom=0;right=0;pointerEvents=1;shadow=0;" parent="167" vertex="1">
                    <mxGeometry x="180" width="90" height="50" as="geometry">
                        <mxRectangle width="90" height="50" as="alternateBounds"/>
                    </mxGeometry>
                </mxCell>
                <mxCell id="172" value="provider" style="shape=partialRectangle;html=1;whiteSpace=wrap;connectable=0;overflow=hidden;fillColor=none;top=0;left=0;bottom=0;right=0;pointerEvents=1;shadow=0;" parent="167" vertex="1">
                    <mxGeometry x="270" width="60" height="50" as="geometry">
                        <mxRectangle width="60" height="50" as="alternateBounds"/>
                    </mxGeometry>
                </mxCell>
                <mxCell id="173" value="Timestamp" style="shape=partialRectangle;html=1;whiteSpace=wrap;connectable=0;overflow=hidden;fillColor=none;top=0;left=0;bottom=0;right=0;pointerEvents=1;shadow=0;" parent="167" vertex="1">
                    <mxGeometry x="330" width="70" height="50" as="geometry">
                        <mxRectangle width="70" height="50" as="alternateBounds"/>
                    </mxGeometry>
                </mxCell>
                <mxCell id="174" value="Cost per&lt;br&gt;Unit" style="shape=partialRectangle;html=1;whiteSpace=wrap;connectable=0;overflow=hidden;fillColor=none;top=0;left=0;bottom=0;right=0;pointerEvents=1;shadow=0;" parent="167" vertex="1">
                    <mxGeometry x="400" width="60" height="50" as="geometry">
                        <mxRectangle width="60" height="50" as="alternateBounds"/>
                    </mxGeometry>
                </mxCell>
                <mxCell id="175" value="Peak&amp;nbsp;&lt;br&gt;Consumption&lt;br&gt;Period" style="shape=partialRectangle;html=1;whiteSpace=wrap;connectable=0;overflow=hidden;fillColor=none;top=0;left=0;bottom=0;right=0;pointerEvents=1;shadow=0;" parent="167" vertex="1">
                    <mxGeometry x="460" width="90" height="50" as="geometry">
                        <mxRectangle width="90" height="50" as="alternateBounds"/>
                    </mxGeometry>
                </mxCell>
                <mxCell id="176" value="Device ID(FK)" style="shape=partialRectangle;html=1;whiteSpace=wrap;connectable=0;overflow=hidden;fillColor=none;top=0;left=0;bottom=0;right=0;pointerEvents=1;shadow=0;" parent="167" vertex="1">
                    <mxGeometry x="550" width="50" height="50" as="geometry">
                        <mxRectangle width="50" height="50" as="alternateBounds"/>
                    </mxGeometry>
                </mxCell>
                <mxCell id="180" value="" style="shape=table;startSize=0;container=1;collapsible=0;childLayout=tableLayout;shadow=0;" parent="1" vertex="1">
                    <mxGeometry x="310" y="260" width="780" height="50" as="geometry"/>
                </mxCell>
                <mxCell id="181" value="" style="shape=tableRow;horizontal=0;startSize=0;swimlaneHead=0;swimlaneBody=0;top=0;left=0;bottom=0;right=0;collapsible=0;dropTarget=0;fillColor=none;points=[[0,0.5],[1,0.5]];portConstraint=eastwest;shadow=0;" parent="180" vertex="1">
                    <mxGeometry width="780" height="50" as="geometry"/>
                </mxCell>
                <mxCell id="182" value="&lt;b&gt;&lt;u&gt;Device ID&lt;br&gt;(PK)&lt;/u&gt;&lt;/b&gt;" style="shape=partialRectangle;html=1;whiteSpace=wrap;connectable=0;overflow=hidden;fillColor=none;top=0;left=0;bottom=0;right=0;pointerEvents=1;shadow=0;" parent="181" vertex="1">
                    <mxGeometry width="90" height="50" as="geometry">
                        <mxRectangle width="90" height="50" as="alternateBounds"/>
                    </mxGeometry>
                </mxCell>
                <mxCell id="183" value="Device Type" style="shape=partialRectangle;html=1;whiteSpace=wrap;connectable=0;overflow=hidden;fillColor=none;top=0;left=0;bottom=0;right=0;pointerEvents=1;shadow=0;" parent="181" vertex="1">
                    <mxGeometry x="90" width="80" height="50" as="geometry">
                        <mxRectangle width="80" height="50" as="alternateBounds"/>
                    </mxGeometry>
                </mxCell>
                <mxCell id="184" value="Department&lt;br&gt;ID" style="shape=partialRectangle;html=1;whiteSpace=wrap;connectable=0;overflow=hidden;fillColor=none;top=0;left=0;bottom=0;right=0;pointerEvents=1;shadow=0;" parent="181" vertex="1">
                    <mxGeometry x="170" width="90" height="50" as="geometry">
                        <mxRectangle width="90" height="50" as="alternateBounds"/>
                    </mxGeometry>
                </mxCell>
                <mxCell id="185" value="Location ID" style="shape=partialRectangle;html=1;whiteSpace=wrap;connectable=0;overflow=hidden;fillColor=none;top=0;left=0;bottom=0;right=0;pointerEvents=1;shadow=0;" parent="181" vertex="1">
                    <mxGeometry x="260" width="80" height="50" as="geometry">
                        <mxRectangle width="80" height="50" as="alternateBounds"/>
                    </mxGeometry>
                </mxCell>
                <mxCell id="186" value="Installation Date" style="shape=partialRectangle;html=1;whiteSpace=wrap;connectable=0;overflow=hidden;fillColor=none;top=0;left=0;bottom=0;right=0;pointerEvents=1;shadow=0;" parent="181" vertex="1">
                    <mxGeometry x="340" width="100" height="50" as="geometry">
                        <mxRectangle width="100" height="50" as="alternateBounds"/>
                    </mxGeometry>
                </mxCell>
                <mxCell id="187" value="Device Status" style="shape=partialRectangle;html=1;whiteSpace=wrap;connectable=0;overflow=hidden;fillColor=none;top=0;left=0;bottom=0;right=0;pointerEvents=1;shadow=0;" parent="181" vertex="1">
                    <mxGeometry x="440" width="90" height="50" as="geometry">
                        <mxRectangle width="90" height="50" as="alternateBounds"/>
                    </mxGeometry>
                </mxCell>
                <mxCell id="188" value="Last&lt;br&gt;Communication&lt;br&gt;Timestamp" style="shape=partialRectangle;html=1;whiteSpace=wrap;connectable=0;overflow=hidden;fillColor=none;top=0;left=0;bottom=0;right=0;pointerEvents=1;shadow=0;" parent="181" vertex="1">
                    <mxGeometry x="530" width="110" height="50" as="geometry">
                        <mxRectangle width="110" height="50" as="alternateBounds"/>
                    </mxGeometry>
                </mxCell>
                <mxCell id="189" value="Manufacturer" style="shape=partialRectangle;html=1;whiteSpace=wrap;connectable=0;overflow=hidden;fillColor=none;top=0;left=0;bottom=0;right=0;pointerEvents=1;shadow=0;" parent="181" vertex="1">
                    <mxGeometry x="640" width="75" height="50" as="geometry">
                        <mxRectangle width="75" height="50" as="alternateBounds"/>
                    </mxGeometry>
                </mxCell>
                <mxCell id="190" value="Battery Status" style="shape=partialRectangle;html=1;whiteSpace=wrap;connectable=0;overflow=hidden;fillColor=none;top=0;left=0;bottom=0;right=0;pointerEvents=1;shadow=0;" parent="181" vertex="1">
                    <mxGeometry x="715" width="65" height="50" as="geometry">
                        <mxRectangle width="65" height="50" as="alternateBounds"/>
                    </mxGeometry>
                </mxCell>
                <mxCell id="192" value="IoT Device" style="text;html=1;align=center;verticalAlign=middle;resizable=0;points=[];autosize=1;strokeColor=none;fillColor=none;shadow=0;" parent="1" vertex="1">
                    <mxGeometry x="310" y="230" width="80" height="30" as="geometry"/>
                </mxCell>
                <mxCell id="194" value="" style="edgeStyle=entityRelationEdgeStyle;fontSize=12;html=1;endArrow=ERoneToMany;entryX=0.167;entryY=0.994;entryDx=0;entryDy=0;entryPerimeter=0;" parent="1" target="3" edge="1">
                    <mxGeometry width="100" height="100" relative="1" as="geometry">
                        <mxPoint x="-130" y="-570" as="sourcePoint"/>
                        <mxPoint x="430" y="-980" as="targetPoint"/>
                    </mxGeometry>
                </mxCell>
                <mxCell id="195" value="" style="edgeStyle=entityRelationEdgeStyle;fontSize=12;html=1;endArrow=ERoneToMany;entryX=0.344;entryY=0.994;entryDx=0;entryDy=0;entryPerimeter=0;" parent="1" source="80" target="3" edge="1">
                    <mxGeometry width="100" height="100" relative="1" as="geometry">
                        <mxPoint x="660" y="-780" as="sourcePoint"/>
                        <mxPoint x="760" y="-880" as="targetPoint"/>
                    </mxGeometry>
                </mxCell>
                <mxCell id="196" value="" style="edgeStyle=entityRelationEdgeStyle;fontSize=12;html=1;endArrow=ERoneToMany;exitX=0.022;exitY=0.993;exitDx=0;exitDy=0;exitPerimeter=0;entryX=0.18;entryY=-0.025;entryDx=0;entryDy=0;entryPerimeter=0;" parent="1" source="32" target="69" edge="1">
                    <mxGeometry width="100" height="100" relative="1" as="geometry">
                        <mxPoint x="157.5" y="-530" as="sourcePoint"/>
                        <mxPoint x="-20" y="-420" as="targetPoint"/>
                    </mxGeometry>
                </mxCell>
                <mxCell id="197" value="" style="edgeStyle=entityRelationEdgeStyle;fontSize=12;html=1;endArrow=ERoneToMany;exitX=0;exitY=0.5;exitDx=0;exitDy=0;entryX=0.303;entryY=0.992;entryDx=0;entryDy=0;entryPerimeter=0;" parent="1" source="91" target="69" edge="1">
                    <mxGeometry width="100" height="100" relative="1" as="geometry">
                        <mxPoint x="-120" y="-250" as="sourcePoint"/>
                        <mxPoint x="40" y="-390" as="targetPoint"/>
                    </mxGeometry>
                </mxCell>
                <mxCell id="198" value="" style="edgeStyle=entityRelationEdgeStyle;fontSize=12;html=1;endArrow=ERoneToMany;exitX=-0.002;exitY=0.833;exitDx=0;exitDy=0;exitPerimeter=0;entryX=0.467;entryY=-0.092;entryDx=0;entryDy=0;entryPerimeter=0;" parent="1" source="91" target="112" edge="1">
                    <mxGeometry width="100" height="100" relative="1" as="geometry">
                        <mxPoint x="42.5" y="-40" as="sourcePoint"/>
                        <mxPoint x="120" as="targetPoint"/>
                    </mxGeometry>
                </mxCell>
                <mxCell id="199" value="" style="edgeStyle=entityRelationEdgeStyle;fontSize=12;html=1;endArrow=ERoneToMany;exitX=0.008;exitY=0.026;exitDx=0;exitDy=0;exitPerimeter=0;entryX=0.33;entryY=1.033;entryDx=0;entryDy=0;entryPerimeter=0;" parent="1" source="134" target="112" edge="1">
                    <mxGeometry width="100" height="100" relative="1" as="geometry">
                        <mxPoint x="-52.5" y="110" as="sourcePoint"/>
                        <mxPoint x="47.5" y="10" as="targetPoint"/>
                    </mxGeometry>
                </mxCell>
                <mxCell id="200" value="" style="edgeStyle=entityRelationEdgeStyle;fontSize=12;html=1;endArrow=ERmany;startArrow=ERmany;entryX=0.077;entryY=0.992;entryDx=0;entryDy=0;entryPerimeter=0;exitX=0.353;exitY=-0.04;exitDx=0;exitDy=0;exitPerimeter=0;" parent="1" source="124" target="134" edge="1">
                    <mxGeometry width="100" height="100" relative="1" as="geometry">
                        <mxPoint x="105" y="320" as="sourcePoint"/>
                        <mxPoint x="205" y="220" as="targetPoint"/>
                    </mxGeometry>
                </mxCell>
                <mxCell id="201" value="" style="edgeStyle=entityRelationEdgeStyle;fontSize=12;html=1;endArrow=ERmany;startArrow=ERmany;exitX=0.45;exitY=0.027;exitDx=0;exitDy=0;exitPerimeter=0;entryX=0.144;entryY=0.976;entryDx=0;entryDy=0;entryPerimeter=0;" parent="1" source="124" target="134" edge="1">
                    <mxGeometry width="100" height="100" relative="1" as="geometry">
                        <mxPoint x="110" y="300" as="sourcePoint"/>
                        <mxPoint x="80" y="30" as="targetPoint"/>
                    </mxGeometry>
                </mxCell>
                <mxCell id="203" value="" style="edgeStyle=entityRelationEdgeStyle;fontSize=12;html=1;endArrow=ERoneToMany;entryX=0.291;entryY=1.06;entryDx=0;entryDy=0;entryPerimeter=0;exitX=0.079;exitY=-0.007;exitDx=0;exitDy=0;exitPerimeter=0;" parent="1" source="181" target="143" edge="1">
                    <mxGeometry width="100" height="100" relative="1" as="geometry">
                        <mxPoint x="500" y="580" as="sourcePoint"/>
                        <mxPoint x="460" y="350" as="targetPoint"/>
                    </mxGeometry>
                </mxCell>
                <mxCell id="204" value="" style="edgeStyle=entityRelationEdgeStyle;fontSize=12;html=1;endArrow=ERoneToMany;entryX=0.134;entryY=-0.007;entryDx=0;entryDy=0;entryPerimeter=0;exitX=-0.012;exitY=0.908;exitDx=0;exitDy=0;exitPerimeter=0;" parent="1" source="134" target="167" edge="1">
                    <mxGeometry width="100" height="100" relative="1" as="geometry">
                        <mxPoint x="-330" y="390" as="sourcePoint"/>
                        <mxPoint x="-230" y="290" as="targetPoint"/>
                    </mxGeometry>
                </mxCell>
                <mxCell id="205" value="" style="edgeStyle=entityRelationEdgeStyle;fontSize=12;html=1;endArrow=ERoneToMany;entryX=1;entryY=0.5;entryDx=0;entryDy=0;exitX=0;exitY=0.5;exitDx=0;exitDy=0;" parent="1" source="181" target="167" edge="1">
                    <mxGeometry width="100" height="100" relative="1" as="geometry">
                        <mxPoint x="320" y="510" as="sourcePoint"/>
                        <mxPoint x="420" y="410" as="targetPoint"/>
                    </mxGeometry>
                </mxCell>
                <mxCell id="207" value="" style="edgeStyle=entityRelationEdgeStyle;fontSize=12;html=1;endArrow=ERoneToMany;entryX=0;entryY=0.5;entryDx=0;entryDy=0;exitX=0.196;exitY=1.115;exitDx=0;exitDy=0;exitPerimeter=0;" parent="1" source="102" target="134" edge="1">
                    <mxGeometry width="100" height="100" relative="1" as="geometry">
                        <mxPoint x="-350" y="180" as="sourcePoint"/>
                        <mxPoint x="-220" y="210" as="targetPoint"/>
                    </mxGeometry>
                </mxCell>
                <mxCell id="209" value="" style="edgeStyle=entityRelationEdgeStyle;fontSize=12;html=1;endArrow=ERoneToMany;entryX=0.279;entryY=1.085;entryDx=0;entryDy=0;entryPerimeter=0;exitX=0.087;exitY=-0.002;exitDx=0;exitDy=0;exitPerimeter=0;" parent="1" source="91" target="80" edge="1">
                    <mxGeometry width="100" height="100" relative="1" as="geometry">
                        <mxPoint x="310" y="-290" as="sourcePoint"/>
                        <mxPoint x="670" y="-440" as="targetPoint"/>
                    </mxGeometry>
                </mxCell>
                <mxCell id="212" value="" style="edgeStyle=entityRelationEdgeStyle;fontSize=12;html=1;endArrow=ERmandOne;startArrow=ERmandOne;fontColor=#FFFFFF;entryX=0.05;entryY=1.05;entryDx=0;entryDy=0;entryPerimeter=0;exitX=0.339;exitY=-0.06;exitDx=0;exitDy=0;exitPerimeter=0;" parent="1" source="91" target="80" edge="1">
                    <mxGeometry width="100" height="100" relative="1" as="geometry">
                        <mxPoint x="560" y="-330" as="sourcePoint"/>
                        <mxPoint x="660" y="-430" as="targetPoint"/>
                    </mxGeometry>
                </mxCell>
                <mxCell id="152" value="Traffic Data" style="text;html=1;align=center;verticalAlign=middle;resizable=0;points=[];autosize=1;strokeColor=none;fillColor=none;" parent="1" vertex="1">
                    <mxGeometry x="280" y="100" width="80" height="30" as="geometry"/>
                </mxCell>
                <mxCell id="215" value="" style="edgeStyle=entityRelationEdgeStyle;fontSize=12;html=1;endArrow=ERoneToMany;fontColor=#FFFFFF;entryX=0.153;entryY=0;entryDx=0;entryDy=0;entryPerimeter=0;exitX=0.186;exitY=1.041;exitDx=0;exitDy=0;exitPerimeter=0;" parent="1" source="134" target="143" edge="1">
                    <mxGeometry width="100" height="100" relative="1" as="geometry">
                        <mxPoint x="200" y="50" as="sourcePoint"/>
                        <mxPoint x="300" y="-50" as="targetPoint"/>
                    </mxGeometry>
                </mxCell>
            </root>
        </mxGraphModel>
    </diagram>
</mxfile>